<?xml version="1.0" encoding="utf-8"?>
<!-- Generator: Adobe Adobe Illustrator 24.2.0, SVG Export Plug-In . SVG Version: 6.00 Build 0)  -->
<svg version="1.1" xmlns="http://www.w3.org/2000/svg" xmlns:xlink="http://www.w3.org/1999/xlink" x="0px" y="0px" width="1728px"
	 height="1296px" viewBox="0 0 1728 1296" style="enable-background:new 0 0 1728 1296;" xml:space="preserve">
<style type="text/css">
	.st0{fill:#9E1C1C;}
	.st1{fill:#9E1919;stroke:#BA2727;stroke-miterlimit:10;}
	.st2{fill:#9E1919;stroke:#9E1919;stroke-miterlimit:10;stroke-dasharray:12,12,12,12,12,12;}
	.st3{fill:#9E1919;stroke:#BA2727;stroke-width:2;stroke-linecap:round;stroke-miterlimit:10;stroke-dasharray:0,6,0,6,0,6;}
	.st4{fill:#FFFFFF;}
	.st5{fill:none;}
</style>
<g id="Layer_1">
</g>
<g id="Layer_3">
</g>
<g id="Layer_2">
	<g>
		<ellipse class="st2" cx="874.51" cy="648.33" rx="411.92" ry="396.68"/>
		<path class="st3" d="M832.74,421.11c-42-3.64-91.2,30.53-124.65,55.11c-39.89,29.31-51.4,73.42-57.86,121.17
			c-7.11,52.58-6.79,122.96,32.29,160.51c63.8,61.3,163.22,78.14,250.5,55.63c65.92-17,118.89-71.82,133.85-135.59
			c14.97-63.77-7.54-133.85-55.59-180.28C963.23,451.24,897.01,427.86,832.74,421.11z"/>
		<path class="st1" d="M517.32,894.04c0.24-0.29,0.49-0.58,0.74-0.87C517.77,893.5,517.51,893.81,517.32,894.04z"/>
		<g>
			<g>
				<path class="st4" d="M306.08,143.89c0.92,0,1.81-1.76,0.69-1.76C305.85,142.13,304.96,143.89,306.08,143.89L306.08,143.89z"/>
			</g>
		</g>
		<g>
			<g>
				<path class="st4" d="M850.48,617.76c-5.69,4.55-7.66,12.13-9.02,18.96c-0.74,3.7-1.22,7.7-0.04,11.36
					c1.1,3.42,3.62,6.09,6.7,7.85c3.54,2.02,7.57,2.84,11.6,3.04c3.92,0.2,7.96,0,11.82-0.7c3.5-0.64,6.96-1.83,9.78-4.06
					c2.73-2.16,4.55-5.24,5.57-8.54c1.07-3.43,1.33-7.05,1.28-10.62c-0.05-3.92-0.57-7.91-2.76-11.26
					c-3.87-5.93-11.6-9.07-18.39-9.9c-3.97-0.49-7.98,0.05-11.34,2.33c-3.07,2.09-5.42,5.14-7.26,8.32
					c-3.57,6.18-5.25,14.09-2.35,20.88c1.31,3.06,3.53,5.72,6.6,7.13c3.21,1.47,6.92,1.2,9.97-0.54c3.22-1.84,5.57-4.82,7.35-8.02
					c1.94-3.49,3.33-7.61,3.31-11.63c-0.02-3.63-1.7-7.11-5.08-8.71c-3.45-1.63-7.16-0.65-10.13,1.5c-2.87,2.09-5.1,5.05-6.43,8.33
					c-1.23,3.02-1.93,6.77-0.85,9.94c1.09,3.17,4.09,4.99,7.43,4.55c3.44-0.44,6.77-2.89,9.08-5.37c3.48-3.75,7.58-12.47,1.23-15.75
					c-7.01-3.61-13.28,5.98-11.7,12.21c0.82,3.22,4,5.37,7.28,5.07c3.37-0.3,5.99-3.24,7.39-6.12c1.19-2.46,1.78-5.8-0.26-7.99
					c-2.18-2.34-6.14-2.58-8.71-0.78c-5.44,3.8-3.56,13.45,2.16,15.94c6.55,2.86,12.74-3.22,12.77-9.63c0.03-6.57-5.8-10.75-12-10.8
					c-2.95-0.02-5.85,0.94-8.02,2.97c-0.81,0.75,1.87,1.7,2.5,1.27c3.17-2.17,6.63-4.63,10.56-5.08c3.37-0.39,6.67,1.03,7.73,4.45
					c1.12,3.61-0.1,7.65-1.12,11.14c-1.21,4.14-2.81,8.15-4.74,12.01c-0.43,0.85,2.29,1.64,2.79,0.96
					c4.65-6.28,7.02-15.09,3.18-22.36c-3.33-6.32-11.13-10.34-18.18-8.66c-1.63,0.39,0.71,1.66,1.45,1.61
					c3.66-0.27,8.23-0.73,10.98,2.25c2.59,2.81,2.89,7.14,2.91,10.77c0.02,4.29-0.53,8.93-2.9,12.62c-2.05,3.19-5.47,5.72-9.38,5.72
					c0.48,0.54,0.97,1.07,1.45,1.61c3.78-0.94,7.97-2.37,10.19-5.82c2.2-3.42,1.88-7.67,1.17-11.5c-1.34-7.19-3.27-15.45-9.82-19.68
					c-0.23,0.41-0.47,0.82-0.7,1.23c2.64,0.23,4.95,1.29,6.88,3.11c0.45-0.32,0.9-0.64,1.36-0.96c-1.5-0.47-3-0.95-4.5-1.42
					c-0.42-0.13-1.49-0.25-1.64,0.34c-0.16,0.61,0.86,0.99,1.25,1.11c1.5,0.47,3,0.95,4.5,1.42c0.66,0.21,2.32-0.05,1.36-0.96
					c-2.61-2.47-6.02-3.94-9.6-4.24c-0.95-0.08-1.78,0.54-0.7,1.23c5.83,3.76,7.41,11.72,8.65,18.05c0.71,3.62,1.2,7.84-0.89,11.13
					c-2.02,3.19-5.79,4.52-9.28,5.38c-0.55,0.14-0.69,0.47-0.37,0.92c0.36,0.51,1.25,0.69,1.82,0.69c7.72,0,12.59-6.82,13.68-13.84
					c0.99-6.38,0.99-15.57-5.45-19.17c-3.67-2.06-8.04-1.94-12.1-1.63c0.48,0.54,0.97,1.07,1.45,1.61
					c6.1-1.46,12.19,2.88,14.32,8.51c2.54,6.7,0.32,14.24-3.79,19.8c0.93,0.32,1.86,0.64,2.79,0.96c1.76-3.51,3.25-7.15,4.41-10.91
					c1.02-3.28,2.05-6.77,1.87-10.24c-0.36-6.72-7.15-9.71-13.16-8.76c-4.01,0.63-7.47,2.97-10.75,5.21
					c0.83,0.42,1.67,0.85,2.5,1.27c3.56-3.33,9.84-3.41,12.81,0.76c2.78,3.91,1.86,9.86-1.77,12.92c-1.12,0.94-2.68,1.78-4.18,1.73
					c-1.27-0.04-2.27-0.92-2.99-1.9c-1.53-2.09-2.02-4.83-1.53-7.34c0.27-1.43,0.84-2.82,1.86-3.87c0.83-0.86,2.3-1.73,3.55-1.4
					c2.5,0.65,1.87,4.56,1.26,6.26c-0.88,2.48-2.81,5.23-5.34,6.23c-3.28,1.3-4.5-3.09-4.2-5.54c0.35-2.89,1.72-5.91,3.99-7.79
					c0.85-0.7,2.27-1.6,3.42-1.07c1.06,0.49,1.55,1.84,1.75,2.89c1.01,5.26-3.2,10.66-7.27,13.45c-1.21,0.83-2.61,1.64-4.04,2.02
					c-1.49,0.4-2.46,0.01-3.25-1.32c-1.41-2.39-1.13-5.51-0.49-8.08c0.7-2.81,2.04-5.43,3.92-7.63c1.85-2.16,4.6-4.59,7.59-4.73
					c3.27-0.16,4.88,3.71,5.12,6.41c0.29,3.31-0.73,6.83-2.03,9.84c-1.23,2.86-2.94,5.6-5.2,7.76c-2.03,1.95-4.93,3.82-7.89,3.34
					c-2.71-0.44-4.73-2.97-5.91-5.27c-1.32-2.59-1.87-5.64-1.81-8.54c0.13-5.93,2.63-11.73,6.3-16.32c1.99-2.49,4.46-4.8,7.57-5.77
					c3.18-0.99,6.6-0.53,9.75,0.35c5.33,1.49,10.73,4.62,12.82,10.02c1.21,3.13,1.38,6.62,1.3,9.94c-0.07,2.8-0.38,5.62-1.17,8.32
					c-1.72,5.89-5.89,9.97-11.81,11.59c-2.94,0.8-5.99,1.1-9.03,1.21c-3.44,0.13-6.98,0.07-10.3-0.96
					c-2.74-0.85-5.32-2.44-7.03-4.78c-1.96-2.67-2.46-6.04-2.25-9.28c0.19-3.01,0.88-5.99,1.61-8.91c0.68-2.72,1.51-5.42,2.74-7.95
					c1.24-2.54,2.93-4.8,5.15-6.57C853.95,618.27,851.29,617.12,850.48,617.76L850.48,617.76z"/>
			</g>
		</g>
		<g>
			<g>
				<path class="st4" d="M848.01,579.32c7.56-3.39,16.14-3.51,24.01-1.11c7.81,2.38,14.63,7.33,19.94,13.47
					c10.26,11.85,15.86,27.83,16.07,43.44c0.11,7.83-1.24,15.74-4.2,23c-3.15,7.72-8.25,14-14.18,19.77
					c-6.01,5.85-12.23,11.36-16.93,18.38c-4.18,6.25-7.46,13.05-11.64,19.3c-4.23,6.34-9.52,11.95-16.63,15.01
					c-7.56,3.25-16.27,3.58-24.14,1.27c-7.66-2.25-14.45-6.93-19.86-12.73c-2.79-3-5.66-6.5-7.18-10.34
					c-1.76-4.45-0.66-9.01-0.22-13.59c0.63-6.52-1.48-12.26-5.31-17.49c-3.69-5.05-8.32-9.31-12.45-13.97
					c-4.05-4.57-7.84-9.69-8.98-15.82c-0.88-4.74-0.11-9.59,1.08-14.21c0.98-3.81,2.18-7.59,3.68-11.23
					c2.72-6.62,6.73-13.26,13.11-16.89c7.27-4.13,16.3-2.88,23.26-7.81c6.5-4.61,9.92-12.08,14.76-18.18
					c4.25-5.36,10.72-10.69,18.01-8.33c2.76,0.89,4.94,2.91,5.68,5.75c0.25,0.98,3.17,1.42,2.9,0.36c-1.71-6.56-9.68-9-15.71-8.13
					c-8.08,1.16-13.37,8.54-17.57,14.83c-2.29,3.42-4.58,6.89-7.51,9.81c-3.17,3.17-6.89,5.08-11.24,6.08
					c-4.34,0.99-8.85,1.43-12.96,3.25c-3.36,1.49-6.3,3.84-8.68,6.61c-5.06,5.89-7.87,13.45-9.99,20.81
					c-1.34,4.66-2.39,9.49-2.04,14.36c0.25,3.5,1.35,6.82,3.01,9.9c3.12,5.79,7.92,10.48,12.39,15.23
					c4.31,4.58,8.87,9.51,10.84,15.62c1.21,3.78,1.01,7.51,0.51,11.4c-0.3,2.32-0.6,4.66-0.43,7c0.16,2.21,0.86,4.27,1.88,6.22
					c1.97,3.78,4.84,7.19,7.81,10.22c2.89,2.95,6.15,5.56,9.67,7.72c14.19,8.72,33.67,9.51,46.71-1.85
					c5.91-5.15,9.89-12.03,13.74-18.75c2.02-3.53,4.03-7.08,6.31-10.47c2.39-3.55,5.13-6.79,8.13-9.84
					c6.3-6.39,13.43-12.09,18.41-19.66c4.46-6.78,7.2-14.56,8.3-22.58c2.22-16.21-1.88-33.24-10.74-46.94
					c-9.15-14.13-24.68-24.45-42.02-23.24c-4.11,0.29-8.12,1.24-11.88,2.93c-0.63,0.28-0.11,0.89,0.25,1.13
					C846.51,579.4,847.4,579.59,848.01,579.32L848.01,579.32z"/>
			</g>
		</g>
		<g>
			<g>
				<path class="st4" d="M851.31,452.12c-9.51,27.93-13.65,57.61-12.21,87.08c0.41,8.35,1.28,16.67,2.59,24.93
					c0.15,0.98,3.08,1.49,2.9,0.36c-4.61-29.16-3.6-59.11,2.91-87.9c1.81-8.01,4.06-15.92,6.71-23.7
					C854.53,451.94,851.65,451.1,851.31,452.12L851.31,452.12z"/>
			</g>
		</g>
		<g>
			<g>
				<path class="st4" d="M869.6,455.5c-2.32,27.71-5.5,55.34-9.54,82.85c-1.15,7.81-2.37,15.62-3.66,23.41
					c-0.18,1.06,2.73,1.76,2.9,0.78c4.53-27.43,8.21-55.01,11.02-82.67c0.8-7.86,1.52-15.72,2.18-23.59
					C872.59,455.18,869.68,454.55,869.6,455.5L869.6,455.5z"/>
			</g>
		</g>
		<g>
			<g>
				<path class="st4" d="M893.86,463.56c-7.37,28.14-12.6,56.84-15.59,85.78c-0.85,8.19-1.51,16.41-2,24.63
					c-0.07,1.11,2.84,1.71,2.9,0.78c1.74-29.03,5.69-57.93,11.84-86.36c1.74-8.06,3.67-16.08,5.76-24.06
					C897.02,463.33,894.13,462.55,893.86,463.56L893.86,463.56z"/>
			</g>
		</g>
		<g>
			<g>
				<path class="st4" d="M831.96,744.03c-2.53,15.21-2.09,30.88,1.31,45.92c0.97,4.29,2.19,8.52,3.63,12.68
					c0.33,0.96,3.24,1.35,2.9,0.36c-6.45-18.64-8.18-38.73-4.94-58.19C835.03,743.74,832.12,743.04,831.96,744.03L831.96,744.03z"/>
			</g>
		</g>
		<g>
			<g>
				<path class="st4" d="M843.14,749.1c8.28,16.28,11.05,35.14,7.82,53.12c-0.19,1.06,2.72,1.77,2.9,0.78
					c3.29-18.31,0.41-37.39-8.02-53.96C845.42,748.2,842.52,747.87,843.14,749.1L843.14,749.1z"/>
			</g>
		</g>
		<g>
			<g>
				<path class="st4" d="M852.07,741.35c13.06,12.7,21.87,29.55,24.98,47.49c0.88,5.1,1.3,10.27,1.23,15.44
					c-0.02,1.12,2.89,1.69,2.9,0.78c0.25-18.65-5.68-37.14-16.54-52.3c-3.05-4.26-6.49-8.23-10.25-11.89
					c-0.48-0.46-1.41-0.71-2.05-0.55C851.74,740.48,851.62,740.91,852.07,741.35L852.07,741.35z"/>
			</g>
		</g>
		<g>
			<g>
				<path class="st4" d="M923.65,639.62c12.94-8.17,27.72-13.32,42.94-14.96c4.3-0.46,8.63-0.63,12.95-0.53
					c0.54,0.01,1.06-0.28,0.79-0.85c-0.29-0.59-1.35-0.78-1.91-0.79c-15.59-0.34-31.23,2.88-45.4,9.39
					c-4.03,1.85-7.93,3.97-11.68,6.34C920.18,638.95,922.84,640.13,923.65,639.62L923.65,639.62z"/>
			</g>
		</g>
		<g>
			<g>
				<path class="st4" d="M946.61,664.91c21.38,2.65,43.32,1.17,64.12-4.47c5.79-1.57,11.49-3.47,17.06-5.68
					c0.65-0.26,0.09-0.9-0.25-1.13c-0.56-0.37-1.41-0.52-2.05-0.27c-19.47,7.74-40.49,11.44-61.43,11.18
					c-5.96-0.07-11.92-0.49-17.84-1.22c-0.43-0.05-1.33-0.02-1.25,0.62C945.05,664.54,946.14,664.85,946.61,664.91L946.61,664.91z"
					/>
			</g>
		</g>
		<g>
			<g>
				<path class="st4" d="M967.3,636.72c9.09-3.08,18.55-4.97,28.04-6.33c9.64-1.38,19.36-2.33,29.07-3.1
					c5.17-0.41,10.47-0.6,15.47,1.02c0.41,0.13,1.49,0.25,1.64-0.34c0.16-0.61-0.87-0.99-1.25-1.11c-4.53-1.46-9.34-1.64-14.06-1.4
					c-5,0.25-10,0.81-14.99,1.3c-10.07,0.98-20.14,2.15-30.06,4.2c-5.47,1.14-10.88,2.56-16.17,4.36c-0.67,0.23-0.07,0.92,0.25,1.13
					C965.83,636.83,966.64,636.94,967.3,636.72L967.3,636.72z"/>
			</g>
		</g>
		<g>
			<g>
				<path class="st4" d="M705.37,578.77c12.38,17,33.24,23.6,51.15,32.88c5.46,2.83,10.76,5.98,15.58,9.81
					c0.54,0.43,1.36,0.72,2.05,0.55c0.55-0.14,0.78-0.62,0.27-1.02c-16.47-13.1-37.66-18-54.48-30.52
					c-4.5-3.35-8.58-7.22-11.88-11.76c-0.4-0.55-1.25-0.82-1.91-0.79C705.72,577.93,704.96,578.2,705.37,578.77L705.37,578.77z"/>
			</g>
		</g>
		<g>
			<g>
				<path class="st4" d="M704.47,608.56c15.23,7.71,31.36,13.66,47.96,17.67c4.68,1.13,9.4,2.1,14.15,2.94
					c0.43,0.08,1.33,0.01,1.25-0.62c-0.08-0.63-1.17-0.9-1.65-0.98c-16.36-2.87-32.38-7.63-47.66-14.16
					c-4.37-1.87-8.67-3.88-12.9-6.03c-0.44-0.22-1.55-0.45-1.92,0.03C703.29,607.93,704.1,608.37,704.47,608.56L704.47,608.56z"/>
			</g>
		</g>
		<g>
			<g>
				<path class="st4" d="M709.94,641.68c17.07-2.7,34.09-5.71,51.05-9.03c0.62-0.12,0.68-0.61,0.27-1.02
					c-0.48-0.48-1.4-0.68-2.05-0.55c-16.96,3.32-33.98,6.33-51.05,9.03c-0.63,0.1-0.67,0.63-0.27,1.02
					C708.38,641.62,709.28,641.78,709.94,641.68L709.94,641.68z"/>
			</g>
		</g>
		<g>
			<g>
				<path class="st4" d="M725.68,529.82c-2.35,3.91-3.5,8.33-3.54,12.89c-0.05,4.42,0.73,9.08,3.36,12.74
					c4.28,5.96,12.55,8.21,19.54,6.93c15.9-2.92,25.37-26.36,13.09-38.18c-6.79-6.54-17.83-7.23-25.35-1.55
					c-0.53,0.4,0.5,1.04,0.77,1.16c0.58,0.25,1.38,0.38,1.92-0.03c5.94-4.49,14.34-4.54,19.94,0.52c5.97,5.4,6.4,13.83,3.94,21.07
					c-2.17,6.39-6.8,12.22-13.24,14.65c-5.75,2.18-13.05,1.05-17.19-3.73c-2.87-3.31-3.81-7.9-3.87-12.17
					c-0.07-4.58,0.97-9.23,3.33-13.17C728.98,529.93,726.17,529,725.68,529.82L725.68,529.82z"/>
			</g>
		</g>
		<g>
			<g>
				<path class="st4" d="M778.2,538.45c-3.33,7.6-3.59,16.45-0.6,24.21c1.31,3.4,3.23,6.67,6.26,8.79
					c3.26,2.28,7.51,2.83,11.34,1.91c7.52-1.81,13.43-9.01,16.45-15.8c3.04-6.85,3.07-15.14-1.45-21.38
					c-4.67-6.44-14.29-9.4-21.47-5.43c-1.18,0.65,1.47,1.86,2.31,1.4c5.73-3.16,12.71-1.08,16.47,4.09c4,5.52,4.21,12.8,1.87,19.02
					c-2.28,6.07-7,12.4-12.89,15.37c-3.16,1.6-7.22,2.27-10.36,0.27c-2.83-1.81-4.56-5.03-5.72-8.09
					c-2.87-7.62-2.58-16.15,0.68-23.59C781.48,538.35,778.64,537.44,778.2,538.45L778.2,538.45z"/>
			</g>
		</g>
		<g>
			<g>
				<path class="st4" d="M771.68,477.9c-7.75,4.99-13.16,13.61-12.9,23c0.26,9.19,6.03,17.81,14.6,21.25
					c4.38,1.76,9.28,2.29,13.92,1.37c4.78-0.94,8.81-3.52,12.06-7.1c3.35-3.68,6.65-8.16,8.15-12.96c1.6-5.11,0.41-10.42-2.41-14.87
					c-5.53-8.75-16.43-13.29-26.56-12.14c-0.64,0.07-0.66,0.64-0.27,1.02c0.51,0.51,1.37,0.63,2.05,0.55
					c8.09-0.93,16.41,2.79,21.22,9.35c2.78,3.79,4.45,8.58,3.58,13.29c-0.85,4.59-3.6,8.6-6.42,12.2c-2.77,3.54-6.03,6.7-10.31,8.29
					c-3.89,1.44-8.27,1.52-12.24,0.36c-8.11-2.37-13.45-10.23-14.34-18.4c-1.03-9.49,4.31-18.75,12.18-23.82
					C775.14,478.56,772.48,477.39,771.68,477.9L771.68,477.9z"/>
			</g>
		</g>
		<g>
			<g>
				<path class="st4" d="M912.13,529.42c-4.58-0.08-7.38-5.05-7.82-9.08c-0.55-5,1.42-10.36,4.05-14.55
					c4.26-6.78,13.07-12.56,20.98-7.99c3.6,2.08,6.29,6.79,3.66,10.64c-1.93,2.83-5.78,4.85-6.1,8.59c-0.26,3.13,2,5.62,3.98,7.75
					c1.91,2.05,4.74,4.57,4.3,7.69c-0.35,2.52-2.68,4.8-4.56,6.36c-1.63,1.35-4.51,3.23-6.54,1.64c-1.58-1.24-2.09-3.51-2.6-5.34
					c-0.55-1.99-1.1-4-2.28-5.72c-0.38-0.56-1.26-0.82-1.91-0.79c-0.45,0.02-1.18,0.28-0.79,0.85c2.36,3.43,1.85,8.36,5.04,11.29
					c4.13,3.79,9.69,1.43,13.1-2.01c1.7-1.72,3.54-3.89,3.49-6.45c-0.03-1.66-0.84-3.18-1.82-4.48c-2.07-2.76-5.75-5.17-6.43-8.74
					c-0.85-4.4,4.3-6.86,6.21-10.14c2.57-4.39-0.78-9.36-4.54-11.75c-3.87-2.45-8.93-3.2-13.37-2.16
					c-4.87,1.14-8.97,4.47-11.79,8.52c-3.46,4.96-6.04,11.65-4.78,17.75c1.14,5.52,5.99,9.66,11.64,9.76
					c0.54,0.01,1.06-0.28,0.79-0.85C913.75,529.62,912.69,529.44,912.13,529.42L912.13,529.42z"/>
			</g>
		</g>
		<g>
			<g>
				<path class="st4" d="M909.82,568.28c-1.49,1.08-3.21,2.16-5.05,2.49c-2.11,0.38-2.97-1.48-3.55-3.22
					c-0.66-1.97-0.88-4.05-0.95-6.11c-0.07-1.9-0.35-4.25,0.38-6.05c0.72-1.77,2.61-2.68,4.3-3.3c1.9-0.71,3.93-1.08,5.96-1.14
					c3.87-0.1,7.67,1.02,10.81,3.3c3.28,2.39,5.7,5.83,6.92,9.69c0.19-0.2,0.37-0.4,0.56-0.6c-2.39,0.71-4.86,1.3-7.2,2.17
					c-2.29,0.85-1.5,2.88-0.84,4.71c1.4,3.88,3.9,7.85,3.09,12.14c-0.61,3.22-3.75,7.18-7.12,4.37c-3.84-3.21-2.68-8.82-1.76-13.06
					c0.23-1.03-2.68-1.78-2.9-0.78c-0.83,3.81-1.71,8.09,0.23,11.71c1.58,2.95,4.96,5.04,8.35,4.73c2.98-0.26,5.07-2.48,5.88-5.26
					c1.02-3.49-0.17-6.88-1.51-10.1c-0.44-1.06-0.89-2.11-1.29-3.18c-0.33-0.89-1.23-2.69-0.54-3.51c0.3-0.36,1.03-0.46,1.46-0.59
					c0.63-0.19,1.26-0.38,1.9-0.57c1.34-0.4,2.69-0.8,4.03-1.21c0.26-0.08,0.68-0.24,0.56-0.61c-2.9-9.25-11.97-15.16-21.54-15
					c-2.44,0.04-4.86,0.48-7.15,1.31c-2.04,0.74-4.24,1.87-5.09,4c-0.45,1.13-0.4,2.38-0.41,3.57c0,1.33,0,2.67,0.09,4
					c0.16,2.52,0.62,5.24,2,7.42c1.29,2.04,3.72,3.04,6.09,2.87c2.61-0.19,4.93-1.57,7-3.07c0.54-0.39-0.51-1.04-0.77-1.16
					C911.15,568,910.37,567.89,909.82,568.28L909.82,568.28z"/>
			</g>
		</g>
		<g>
			<g>
				<path class="st4" d="M955.75,572.84c-3.55-0.98-5.82-4.58-6.3-8.08c-0.54-3.92,1.37-7.79,4.15-10.46
					c3.16-3.03,7.48-4.47,11.81-4.64c3.7-0.15,9.11,0.14,11.29,3.67c2.18,3.54,0.41,8.06-2.6,10.45c-1.65,1.3-3.62,2.09-5.65,2.54
					c-1.63,0.36-3.55,0.95-3.53,2.96c0.02,1.96,1.67,3.69,2.29,5.48c0.71,2.06,0.93,4.26,0.98,6.43c0.1,4.08,0.43,9.44-2.19,12.87
					c-1.13,1.47-3.39,3.29-5.38,2.5c-1.62-0.64-2.55-2.62-2.96-4.19c-1.27-4.84,1.67-9.56,2.44-14.25c0.17-1.06-2.74-1.76-2.9-0.78
					c-0.79,4.85-3.75,9.64-2.44,14.66c1.02,3.9,4.48,6.8,8.63,6.31c5.07-0.59,7.21-5.61,7.55-10.11c0.38-4.89,0.64-10.55-1.68-15.03
					c-0.53-1.02-1.35-2.05-1.43-3.23c-0.09-1.54,1.36-1.83,2.56-2.1c2.26-0.51,4.4-1.4,6.25-2.82c3.47-2.68,5.17-7.62,2.86-11.6
					c-2.4-4.13-8.1-5.13-12.44-5.38c-4.96-0.28-10.13,0.64-14.24,3.56c-3.99,2.83-6.87,7.6-6.27,12.61
					c0.58,4.83,4.19,8.78,8.83,10.06c0.42,0.12,1.48,0.26,1.64-0.34C957.16,573.35,956.14,572.95,955.75,572.84L955.75,572.84z"/>
			</g>
		</g>
		<g>
			<g>
				<path class="st4" d="M897.23,736.03c-1.05,1.7-1.07,3.55-0.07,5.29c0.35,0.6,1.61,0.95,2.24,0.76c2.56-0.8,5.13-1.6,7.69-2.41
					c1.23-0.38,2.45-0.79,3.69-1.15c0.49-0.14,1.06-0.43,1.41,0.02c0.28,0.35,0.31,1.05,0.33,1.47c0.14,2.36-0.36,4.9-0.83,7.2
					c-0.53,2.57-1.29,5.07-2.26,7.51c-0.09,0.22,0.15,0.5,0.29,0.63c1.45,1.38,3.44,1.58,5.35,1.5c0.82-0.03,1.81-0.21,2.59,0.11
					c0.66,0.27,1.16,0.9,1.57,1.47c2,2.81,2.83,6.17,6.11,7.87c1.91,0.99,4.03,1.28,6.07,1.88c1.61,0.47,2.91,1.38,3.96,2.7
					c1.98,2.5,3.02,5.6,4.37,8.45c1.5,3.17,3.47,6.01,6.83,7.37c0.47,0.19,1.53,0.47,1.92-0.03c0.39-0.51-0.38-1-0.77-1.16
					c-2.77-1.12-4.25-3.98-5.43-6.56c-1.29-2.8-2.35-5.82-4.31-8.24c-0.94-1.16-2.05-2.15-3.37-2.86c-1.83-0.99-3.85-1.35-5.84-1.88
					c-1.91-0.51-3.2-1.4-4.25-3.06c-0.86-1.35-1.48-2.84-2.35-4.18c-0.96-1.47-2.26-2.62-3.94-3.17c-1.03-0.33-2.1-0.42-3.18-0.4
					c-0.89,0.02-2.3,0.37-3-0.29c0.1,0.21,0.19,0.42,0.29,0.63c1.19-3.01,2.07-6.13,2.59-9.33c0.25-1.57,0.45-3.16,0.5-4.75
					c0.04-1.07-0.01-2.19-0.62-3.11c-1.63-2.46-4.85-1.66-7.15-0.94c-3.34,1.05-6.68,2.09-10.02,3.14c0.75,0.25,1.49,0.5,2.24,0.76
					c-0.74-1.28-0.72-2.83,0.06-4.09C900.54,736.16,897.73,735.22,897.23,736.03L897.23,736.03z"/>
			</g>
		</g>
		<g>
			<g>
				<path class="st4" d="M890.59,700.5c-0.31,4.89-0.65,10.12,1.54,14.66c1.78,3.69,5.23,6.59,9.31,7.33
					c0.97,0.18,1.95,0.22,2.93,0.13c1.29-0.12,2.64-0.6,3.95-0.5c1.67,0.13,2.3,2.29,2.73,3.62c0.5,1.54,0.91,3.17,1.8,4.55
					c1.12,1.71,2.91,2.55,4.8,3.14c2.33,0.73,4.36,1.64,6.16,3.34c1.81,1.71,3.11,3.87,3.82,6.26c0.29,0.97,3.2,1.39,2.9,0.36
					c-1.15-3.88-3.79-7.18-7.25-9.26c-1.92-1.15-4-1.55-6.01-2.42c-1.71-0.74-2.35-2.53-2.88-4.19c-0.48-1.5-0.88-3.12-1.79-4.43
					c-1.06-1.52-2.79-2.37-4.61-2.57c-2.26-0.25-4.5,0.85-6.74,0.4c-1.99-0.4-3.71-1.84-4.93-3.41c-3.55-4.58-3.18-10.77-2.83-16.23
					C893.56,700.17,890.65,699.56,890.59,700.5L890.59,700.5z"/>
			</g>
		</g>
		<g>
			<g>
				<path class="st4" d="M713.81,691.49c1.32-2.89,3.22-6.49,6.42-7.63c1.86-0.66,3.5,0.12,5.11,1.04c1.56,0.9,3.07,1.87,4.8,2.41
					c2.87,0.9,6.66,0.9,8.11-2.22c0.87-1.86,1.2-4.09,1.73-6.07c0.64-2.4,1.28-4.79,1.92-7.19c-0.67,0.07-1.35,0.14-2.02,0.21
					c4.02,1.82,8.36,3.7,12.88,3.38c3.5-0.25,6.95-1.76,8.66-4.96c0.43-0.8-2.37-1.76-2.9-0.78c-1.4,2.61-4.37,3.98-7.25,4.12
					c-3.6,0.17-7.05-1.5-10.25-2.95c-0.41-0.18-1.83-0.52-2.02,0.21c-0.62,2.32-1.24,4.63-1.85,6.95c-0.55,2.04-0.88,4.39-1.79,6.31
					c-1.9,4-6.47,0.66-8.94-0.67c-2.99-1.61-6.56-2.48-9.65-0.61c-2.82,1.71-4.52,4.77-5.85,7.69
					C710.51,691.58,713.35,692.5,713.81,691.49L713.81,691.49z"/>
			</g>
		</g>
		<g>
			<g>
				<path class="st4" d="M713.7,712.76c3.26-4.25,6.73-8.49,11.77-10.68c2.59-1.13,5.52-1.76,8.34-1.44
					c2.56,0.29,4.95,1.46,7.39,2.22c2.12,0.66,4.54,1.21,6.71,0.52c2.24-0.71,2.97-2.46,3.4-4.59c0.39-1.92,1.16-3.3,3.08-3.94
					c1.71-0.57,3.6-0.55,5.38-0.58c3.42-0.05,8.5,0.44,10.85-2.65c0.7-0.91-2.09-1.92-2.69-1.13c-2.07,2.71-6.6,2.1-9.59,2.15
					c-3.08,0.05-7.56,0.06-9.25,3.19c-1.03,1.91-0.47,4.63-2.66,5.82c-2.02,1.1-4.78-0.18-6.73-0.87c-2.45-0.87-4.86-1.7-7.49-1.83
					c-2.7-0.13-5.39,0.35-7.92,1.28c-5.74,2.1-9.67,6.69-13.29,11.4C710.31,712.53,713.1,713.55,713.7,712.76L713.7,712.76z"/>
			</g>
		</g>
		<g>
			<g>
				<path class="st4" d="M738.64,732.85c5.17-3.12,11.65-1.65,17.36-2.34c2.71-0.33,5.4-1.17,7.46-3.03
					c1.91-1.73,3.11-4.09,4.46-6.24c1.33-2.11,3.03-4.69,5.82-4.58c0.54,0.02,1.06-0.29,0.79-0.85c-0.29-0.6-1.34-0.77-1.91-0.79
					c-5.58-0.21-7.48,5.9-10.27,9.58c-3.95,5.2-10.38,4.42-16.21,4.59c-3.37,0.1-6.85,0.49-9.8,2.27
					C735.16,732.16,737.82,733.35,738.64,732.85L738.64,732.85z"/>
			</g>
		</g>
		<g>
			<g>
				<path class="st4" d="M906.43,698.87c-0.84-1.68-0.14-3.66,1.08-4.95c1.45-1.52,3.48-1.94,5.32-0.87
					c4.43,2.57,4.26,8.48,3.06,12.77c-0.28,0.99,2.26,1.6,2.79,0.96c1.58-1.92,3.39-3.65,5.43-5.09c0.95-0.68,1.96-1.29,3-1.83
					c0.89-0.46,2.21-1.23,3.19-0.66c1.54,0.9,2.07,3.35,2.25,4.97c0.23,2.14-0.09,4.31,0.3,6.44c0.37,2.04,1.43,3.75,3.17,4.89
					c1.79,1.16,3.89,1.56,5.86,2.29c2.28,0.85,3.48,2.61,4.72,4.6c1.17,1.87,2.5,3.6,4.11,5.13c3.72,3.52,8.46,5.75,13.48,6.63
					c0.43,0.08,1.33,0.01,1.25-0.62c-0.08-0.63-1.17-0.9-1.65-0.98c-4.68-0.83-9.04-3.36-12.15-6.95c-1.58-1.82-2.6-4.02-4.13-5.87
					c-1.48-1.78-3.37-2.78-5.54-3.5c-1.96-0.65-4.25-1.03-5.42-2.93c-1.23-2-1.03-4.62-1.04-6.88c-0.01-3.86-1.39-8.16-5.7-8.96
					c-2.76-0.51-5.31,1-7.52,2.48c-2.38,1.59-4.49,3.49-6.31,5.7c0.93,0.32,1.86,0.64,2.79,0.96c0.89-3.19,1.23-6.73-0.12-9.85
					c-1.12-2.59-3.38-4.59-6.05-5.48c-2.54-0.85-5.4-0.67-7.46,1.17c-1.86,1.66-2.56,4.22-1.43,6.48
					C904.15,699.78,907.04,700.12,906.43,698.87L906.43,698.87z"/>
			</g>
		</g>
		<g>
			<g>
				<path class="st4" d="M738.21,778.5c0.02-4.89,0.83-9.7,2.4-14.34c-0.78,0.01-1.57,0.03-2.35,0.04
					c7.23,3.69,14.47,7.39,21.7,11.08c0.42,0.21,2.55,0.85,2.35-0.25c-0.8-4.44-1.32-8.92-1.51-13.42c-0.09-2.19-0.29-4.52,0.01-6.7
					c0.21-1.52,1.11-3.2,2.88-3c1.5,0.17,2.98,1.23,4.2,2.03c1.52,0.99,2.96,2.07,4.6,2.87c3.48,1.7,7.39,2.46,11.25,2.22
					c0.53-0.03,1.08-0.26,0.79-0.85c-0.27-0.56-1.36-0.83-1.91-0.79c-4.36,0.27-8.17-1.02-11.72-3.49c-2.68-1.86-6.3-4.3-9.76-3.53
					c-4.22,0.94-3.37,6.47-3.28,9.67c0.15,4.91,0.68,9.8,1.56,14.63c0.78-0.08,1.57-0.17,2.35-0.25
					c-7.23-3.69-14.47-7.39-21.7-11.08c-0.5-0.26-2.05-0.82-2.35,0.04c-1.57,4.63-2.38,9.45-2.4,14.34
					C735.31,778.84,738.2,779.41,738.21,778.5L738.21,778.5z"/>
			</g>
		</g>
		<g>
			<g>
				<path class="st4" d="M785.37,782.73c0.94-2.45,1.88-4.91,2.81-7.36c0.43-1.13,0.79-2.35,1.36-3.43c0.21-0.4,0.58-1.04,1.05-1.2
					c0.64-0.22,1.7,0.44,2.25,0.66c5.04,2.09,10.08,4.17,15.12,6.26c0.39,0.16,1.85,0.53,2.02-0.21c1.24-5.24,2.48-10.47,3.72-15.71
					c-0.55,0.11-1.1,0.22-1.64,0.34c2.05,0.42,4.11,0.84,6.16,1.26c0.43,0.09,1.48,0.28,1.64-0.34c0.16-0.58-0.85-1.03-1.25-1.11
					c-2.05-0.42-4.11-0.84-6.16-1.26c-0.4-0.08-1.5-0.28-1.64,0.34c-1.24,5.24-2.48,10.47-3.72,15.71c0.67-0.07,1.35-0.14,2.02-0.21
					c-3.01-1.24-6.02-2.49-9.03-3.73c-1.5-0.62-3.01-1.24-4.51-1.87c-1.47-0.61-2.97-1.39-4.54-1.72c-1.16-0.24-2.41-0.19-3.36,0.6
					c-0.9,0.76-1.3,2-1.7,3.06c-1.16,3.05-2.33,6.1-3.49,9.15C782.12,782.88,784.99,783.75,785.37,782.73L785.37,782.73z"/>
			</g>
		</g>
		<g>
			<g>
				<path class="st4" d="M1001.26,571.64c9.61-13.35,19.53-26.47,29.75-39.35c10.23-12.89,20.77-25.55,31.6-37.95
					c10.79-12.35,21.86-24.46,33.21-36.3c11.41-11.9,23.1-23.54,35.06-34.9c11.97-11.37,24.2-22.46,36.68-33.25
					c1.53-1.33,3.07-2.65,4.61-3.96c0.78-0.67-1.91-1.8-2.69-1.13c-12.54,10.73-24.84,21.75-36.87,33.05
					c-12.02,11.29-23.78,22.86-35.26,34.7c-11.42,11.78-22.56,23.82-33.42,36.11c-10.9,12.34-21.51,24.93-31.82,37.77
					c-10.3,12.82-20.3,25.89-29.98,39.19c-1.19,1.63-2.37,3.27-3.55,4.9C997.89,571.44,1000.69,572.44,1001.26,571.64
					L1001.26,571.64z"/>
			</g>
		</g>
		<g>
			<g>
				<path class="st4" d="M962.39,601.31c16.63-5.63,33.28-11.21,49.95-16.74c16.67-5.53,33.35-11.01,50.05-16.43
					c16.77-5.45,33.57-10.85,50.37-16.2c16.66-5.3,33.33-10.55,50.01-15.74c16.77-5.22,33.55-10.39,50.35-15.51
					c2.11-0.64,4.22-1.29,6.33-1.93c1.62-0.49-0.85-1.86-1.77-1.57c-16.89,5.13-33.76,10.32-50.61,15.55
					c-16.77,5.21-33.53,10.47-50.27,15.78c-16.75,5.31-33.48,10.68-50.19,16.1c-16.71,5.41-33.39,10.88-50.07,16.39
					c-16.75,5.54-33.49,11.13-50.2,16.78c-2.09,0.71-4.18,1.41-6.27,2.12c-0.67,0.23-0.07,0.92,0.25,1.13
					C960.93,601.42,961.73,601.53,962.39,601.31L962.39,601.31z"/>
			</g>
		</g>
		<g>
			<g>
				<g>
					<path class="st4" d="M899.75,832.88c-1.1,0.07-2.19,0.2-3.3,0.2l-3.32,0.03c1.15,0.44,2.31,1.17,3.57,2.37
						C898.23,836.2,898.83,834.44,899.75,832.88z"/>
					<path class="st4" d="M887.01,833.14c-0.4,0-0.8,0-1.17,0c-0.34,0.23-0.67,0.48-0.97,0.72
						C885.58,833.59,886.3,833.34,887.01,833.14z"/>
					<path class="st4" d="M875.56,835.37c2.05,0.38,4.01,0.11,5.88-0.38C879.75,834.47,877.83,834.48,875.56,835.37z"/>
					<path class="st4" d="M884.86,836.93c-0.77-1.03-1.16-2.14-0.03-3.04c0.01-0.01,0.03-0.01,0.05-0.03
						c-1.13,0.43-2.25,0.87-3.43,1.14C882.7,835.43,883.85,836.07,884.86,836.93z"/>
					<path class="st4" d="M884.86,836.93c0.74,0.99,1.89,1.9,2.31,2.48C886.48,838.49,885.7,837.65,884.86,836.93z"/>
					<path class="st4" d="M882.85,862.76c-1.27,0.83-1.2-6.45-3.65-4.79c-5.81,2.1-10.97,5.57-16.59,5.24
						c-1.3,0.77-2.9-0.91-4.44-2.59c-1.55-1.68-3.06-3.35-4.37-2.59c-3,0.86-8.49,3.23-12.24,5.55c-3.74,2.3-5.65,4.46-1.02,4.68
						c3.48,0.06,6.66,0.04,9.66-0.04c1.5-0.01,2.96-0.14,4.39-0.28c1.43-0.14,2.83-0.27,4.22-0.41c2.76-0.29,5.48-0.57,8.29-0.86
						c2.79-0.31,5.66-0.8,8.73-1.15c2.49-0.76,4.93-1.56,7.35-2.38c2.41-0.84,4.8-1.86,7.17-2.79c4.74-1.9,9.44-3.65,14.2-5.68
						c2.72-0.68,5.35-0.44,8.02-0.28c-3.55-0.7-7.14-1.38-11.06-1.98c-2.6-0.62-5.19,1.3-8.19,3.82c-1.5,1.25-3.1,2.62-4.84,3.82
						c-0.87,0.6-1.77,1.15-2.71,1.63C884.84,862.16,883.87,862.56,882.85,862.76z"/>
					<path class="st4" d="M948.63,827.28c-0.88,1.12-2.66,3.37-2.66,3.37c-6.45-3.36-11.12-0.33-16.05,3.01
						c1.04,0.99,2.12,1.98,3.21,2.96c3.02-1.16,2.86-3.21-0.23-4.1c1.81,0.7,3.57,1.17,5.27,1.45c1.7,0.27,3.37,0.41,4.95,0.22
						c3.17-0.31,6.16-1.23,9.07-2.5C951.21,829.93,950.59,827.74,948.63,827.28z"/>
					<path class="st4" d="M955.53,830.06c-1.11,0.58-2.23,1.14-3.35,1.64c0.09,0.19,0.21,0.37,0.32,0.56
						c1.08-0.7,2.16-1.4,3.21-2.08C955.66,830.14,955.59,830.1,955.53,830.06z"/>
					<path class="st4" d="M850.5,841.2c-3.93-0.31-7.81-0.62-11.63-1.02c-3.8-0.57-7.54-1.18-11.24-1.8
						c-0.92-0.16-1.84-0.32-2.76-0.47c-0.91-0.19-1.82-0.41-2.72-0.62c-1.81-0.43-3.6-0.86-5.39-1.29
						c-1.78-0.44-3.56-0.88-5.33-1.31c-1.77-0.43-3.49-1.05-5.22-1.57c-1.42,1.1-2.6,2.48-3.84,1.28c-0.78-1.51-1.67-2.57-2.61-3.37
						c-1-0.33-2.01-0.65-3.01-0.98c-0.99-0.35-1.96-0.76-2.94-1.14c-0.74-0.07-1.51-0.11-2.28-0.14c-0.01,0.01-0.05,0.01-0.07,0.02
						c-1.37,0.42-1.39,1.6-1,2.85c0.56,0.99,1.01,2.09,1.36,3.21c-0.22-0.71-0.98-1.99-1.36-3.21c-0.68-1.19-1.52-2.23-2.63-3.02
						c-1.98-0.16-3.99-0.54-5.84-1.58c2.49-0.09,4.38,0.52,5.84,1.58c1.26,0.1,2.48,0.11,3.7,0.15c0.38-0.1,0.77-0.21,1.17-0.31
						c-2.23-0.9-4.46-1.79-6.68-2.68c-1.11-0.45-2.22-0.89-3.31-1.36l-3.24-1.55c-1.09-0.22-2.12-0.44-3.01-0.52
						c-1.79-0.17-3.59-0.34-5.02-0.97c-1.43-0.63-2.51-1.71-2.77-3.8c-0.74-0.4-1.49-0.82-2.23-1.26c0.05,0.27,0.14,0.51,0.19,0.8
						c-0.26-0.36-0.45-0.71-0.6-1.03c-3.13-1.76-6.28-3.48-9.38-5.31c-2.65,0.16-5.57,0.57-8.21,0.36c0,0-0.32-2.9-0.44-4.33
						c-1.73,1.15-3.55,1.55-5.32,1.32c0.67,2.81,1.13,5.76,1.95,7.87c0.26,2.19,2.36,1.23,4.29,0.63c1.93-0.59,3.69-0.83,3.48,2.94
						c0.21-3.76-1.55-3.53-3.48-2.94c-1.93,0.6-4.03,1.56-4.29-0.63c-0.82-2.11-1.27-5.06-1.95-7.87c-3.6-0.62-6.82-4.09-7.97-8.91
						c5.37-0.37,6.91,4.05,7.97,8.91c1.77,0.23,3.59-0.17,5.32-1.32c0.12,1.43,0.44,4.33,0.44,4.33c2.64,0.21,5.56-0.2,8.21-0.36
						c-2.95-1.9-5.92-3.8-8.91-5.73l-2.24-1.43c-0.75-0.47-1.45-1.04-2.18-1.55c-1.44-1.05-2.89-2.1-4.35-3.16
						c-4.67-3.42-9.2-6.88-13.5-10.52c-2.2-1.76-4.26-3.64-6.38-5.44c-1.05-0.91-2.05-1.86-3.08-2.79c-1.02-0.93-2.06-1.83-3.04-2.8
						c-7.96-7.57-15.37-15.45-21.68-24.04l-2.36-3.22l-2.21-3.3l-1.11-1.65l-1.02-1.7l-2.05-3.39c-0.62-1.16-1.25-2.32-1.88-3.48
						l-0.94-1.74l-0.84-1.78c-0.56-1.19-1.12-2.37-1.69-3.57c-0.49-1.21-0.99-2.43-1.48-3.65l-0.74-1.83l-0.63-1.86
						c-0.42-1.24-0.84-2.49-1.26-3.73c-0.34-1.27-0.69-2.55-1.04-3.83l-0.52-1.91c-0.16-0.64-0.27-1.31-0.41-1.96
						c-0.27-1.31-0.53-2.62-0.8-3.93c-0.24-1.32-0.39-2.67-0.59-4.01c-0.44-2.66-0.58-5.42-0.81-8.15c-0.11-1.48-0.06-3-0.1-4.49
						c-0.02-1.49-0.05-2.97,0.05-4.47c0.06-1.49,0.13-2.98,0.19-4.46c0.14-1.49,0.27-2.97,0.41-4.46l0.22-2.21l0.31-2.22
						c0.22-1.48,0.41-2.94,0.65-4.41c0.57-2.94,1.04-5.84,1.77-8.75c1.28-5.79,3.03-11.52,4.89-17.15
						c1.96-5.64,4.08-11.19,6.5-16.68c4.75-10.99,8.92-21.7,13.04-32.2c4.16-10.47,8.4-20.72,13.38-30.54
						c5.01-9.78,10.82-19.12,17.98-27.44c7.22-8.24,15.77-15.54,26.01-20.6c7.6-4.09,15.57-11.62,23.65-18.54l1.49-1.33l1.51-1.27
						c1-0.86,1.99-1.71,2.97-2.55c2.01-1.6,3.91-3.27,5.83-4.7c3.76-3.01,7.36-5.48,10.35-7.38c1.35-2.47,2.27-4.92,2.8-7.48
						c0.55-2.5,0.74-5.01,0.61-7.53c-0.24-5.02-1.7-9.96-3.74-14.27c-2.02-4.32-4.63-8.01-6.91-10.66
						c-2.27-2.65-4.19-4.28-4.65-4.55c-1.59-1.09-3.13-2.04-4.61-2.84c-1.47-0.77-2.88-1.41-4.25-1.92
						c-2.73-1.01-5.33-1.63-7.73-1.73c-2.41-0.12-4.73,0.1-7.01,0.6c-2.24,0.55-4.47,1.36-6.77,2.33c-2.27,1.01-4.59,2.22-7.11,3.48
						c-2.47,1.33-5.14,2.74-8.09,4.2c-5.87,2.98-12.85,6.14-22.08,9.42c6.04-2.51,8.85-2.11,9.35-0.22
						c0.25,0.95-0.08,2.27-0.89,3.82c-0.81,1.55-2.12,3.3-3.74,5.23c-1.64,1.91-3.69,3.89-5.95,5.94c-1.14,1.02-2.38,2.01-3.66,3
						c-1.26,1.01-2.6,1.99-4.01,2.94c-1.42,0.94-2.87,1.86-4.36,2.75c-1.5,0.88-3.06,1.71-4.68,2.46
						c-3.17,1.56-6.59,2.81-10.12,3.69c-10.54,2.3-19.1,7.9-26.04,15.28c-6.94,7.4-12.21,16.58-16.49,26.34
						c-4.29,9.77-7.61,20.11-10.97,30.18c-3.38,10.08-6.82,19.9-11.57,28.96c-4.76,9.09-6.47,19.73-9.78,31.31
						c-2.99,7.34-5.38,15.03-7.32,22.88c-1.93,7.87-3.25,16.04-4.1,24.36c-0.74,8.39-0.97,16.95-0.52,25.69
						c0.1,2.18,0.32,4.4,0.5,6.6l0.3,3.3l0.44,3.34c0.32,2.23,0.6,4.44,0.98,6.68c0.43,2.24,0.87,4.48,1.31,6.72
						c0.4,2.23,1.05,4.49,1.59,6.73c0.58,2.24,1.12,4.48,1.86,6.72c0.71,2.23,1.42,4.46,2.13,6.7c0.81,2.22,1.66,4.44,2.5,6.65
						c3.51,8.83,7.71,17.44,12.54,25.47c4.82,8.05,10.14,15.67,15.81,22.95c5.68,7.26,11.74,14.1,18.02,20.77
						c6.9,6.84,14.81,11.48,22.7,14.94c7.9,3.47,15.73,5.92,23.03,8.43c2.43,1.3,4.84,2.63,7.11,4.21c2.28,1.56,4.48,3.26,6.61,4.96
						c2.1,1.76,4.28,3.25,6.35,4.72c2.08,1.45,4.11,2.76,6.08,3.78c1.56,0.78,3.08,1.6,4.66,2.21c1.57,0.63,3.13,1.21,4.68,1.75
						c3.1,1.08,6.16,1.99,9.17,2.77c6.09,1.38,12.07,2.05,17.85,2.58c-6.1-1.65-11.53-2.78-17.08-4.21
						c-2.75-0.8-5.54-1.63-8.49-2.58c-2.94-0.97-6.09-1.91-9.36-3.39c-4.34-2.01-1.77-3.3,2.59-4.01c1.09-0.18,2.28-0.31,3.53-0.44
						c1.26-0.16,2.55-0.29,3.8-0.38c2.5-0.18,4.84-0.22,6.43-0.06c1.51-0.21,2.37,1.95,3.27,4.12c0.45,1.08,0.9,2.19,1.45,2.95
						c0.55,0.75,1.18,1.21,1.95,1.07c2.67,1.03,5.54,1.26,8.51,1.25c1.49,0,3-0.07,4.54-0.11c1.53-0.02,3.13-0.2,4.72-0.2
						c2.97-0.75,0.39,6.08,1.9,5.71c2.12,0.25,4.26,0,6.33-0.46c1.04-0.23,2.06-0.52,3.05-0.82c0.99-0.3,1.98-0.7,2.92-1.03
						c3.78-1.37,6.98-2.42,9.23-0.8c1.77,1.05,3.46,2.04,5.09,3c1.66,0.93,3.27,1.83,4.85,2.72c2.08,0.84,4.17,1.6,6.52,1.79
						c1.54-0.33,3.1-0.56,4.69-0.97c-0.79-2.36-0.72-5.12-0.61-7.91c1.98,0.78,4.66,2.75,6.69,3.48c-2.03-0.73-4.71-2.71-6.69-3.48
						c-0.11,2.78-0.18,5.54,0.61,7.91c2.83-0.65,5.73-1.27,8.66-1.85c1.46-0.28,2.93-0.56,4.41-0.85c0.74-0.14,1.47-0.26,2.21-0.42
						c0.74-0.17,1.48-0.33,2.23-0.5c2.97-0.66,5.93-1.29,8.84-1.89c1.45-0.29,2.9-0.58,4.34-0.87c1.43-0.34,2.85-0.69,4.26-1.02
						c-0.03-0.2-0.08-0.45-0.11-0.65c-1.62,0.1-3.24,0.2-4.83,0c-1.59-0.18-3.18-0.48-4.75-0.95c-3.14-0.94-6.24-2.49-9.25-5.04
						c1.32,0.97,1.84,1.9,1.61,2.65c-0.22,0.72-1.21,1.32-2.87,1.26c-0.67-1.33-1.35-2.66-2.01-3.98c1.47-0.31,2.93-0.56,4.37-0.82
						c1.45-0.26,2.87-0.41,4.25-0.34c2.77,0.15,5.4,1.2,7.88,4.07c0,0,0.64-0.35,1.43-0.78c0.79-0.42,1.74-1.03,2.36-1.4
						c1.72,1.08,1.52,3.36,1.79,5.32c1.26-0.08,2.54-0.24,3.83-0.42c-1.27-1.86-3.92-4.05-6.21-5.76c-1.15-0.83-2.2-1.68-2.97-2.23
						C850.99,841.55,850.5,841.2,850.5,841.2z"/>
					<path class="st4" d="M787.76,828.35c0.88,0.04,1.92,0.2,3.04,0.37l-5.59-2.32c-0.93-0.39-1.87-0.76-2.79-1.17l-2.73-1.33
						c0.39,2.02,1.47,3.2,2.95,3.75C784.12,828.21,785.94,828.28,787.76,828.35z"/>
				</g>
			</g>
		</g>
		<g>
			<g>
				<g>
					<path class="st4" d="M867.79,463.5c1.62,0.46,3.26,0.93,4.89,1.4c-0.75-0.57-1.44-1.35-2.08-2.49
						C869.64,461.55,868.82,462.62,867.79,463.5z"/>
					<path class="st4" d="M877.18,466.22c0.29,0.09,0.59,0.17,0.86,0.26c0.3-0.09,0.6-0.2,0.87-0.31
						C878.33,466.21,877.75,466.23,877.18,466.22z"/>
					<path class="st4" d="M886.09,467.02c-1.43-0.71-2.93-0.92-4.41-0.96C882.81,466.8,884.24,467.2,886.09,467.02z"/>
					<path class="st4" d="M879.58,463.95c0.34,0.91,0.39,1.8-0.63,2.21c-0.01,0-0.02,0-0.04,0.01c0.92-0.05,1.84-0.15,2.77-0.1
						C880.84,465.49,880.13,464.81,879.58,463.95z"/>
					<path class="st4" d="M879.58,463.95c-0.33-0.88-0.98-1.79-1.15-2.3C878.73,462.47,879.11,463.24,879.58,463.95z"/>
					<path class="st4" d="M886.46,445.63c1.07-0.35-0.49,4.92,1.6,4.22c4.58-0.35,8.88-1.79,12.85-0.67
						c2.16-0.62,3.2,6.09,5.31,5.47c2.3-0.06,6.73-1.1,9.77-2.12c3.04-1.04,4.74-2.3,1.51-3.28c-9.87-2.37-16.56-2.94-25.53-4.22
						c-1.91,0.06-3.79,0.15-5.67,0.25c-1.88,0.18-3.76,0.35-5.65,0.53c-3.76,0.38-7.47,0.64-11.28,0.92
						c-2.07-0.12-3.88-0.89-5.72-1.6c2.33,1.31,4.71,2.57,7.34,3.94C874.33,451.37,880.29,445.47,886.46,445.63z"/>
					<path class="st4" d="M831.15,454.71c0.94-0.52,2.85-1.57,2.85-1.57c1.79,2.17,3.73,2.97,5.79,3.09
						c2.05,0.15,4.21-0.28,6.39-0.76c-0.48-0.98-0.98-1.97-1.48-2.98c-2.44-0.03-2.89,1.45-0.94,2.95c-1.1-0.99-2.21-1.84-3.34-2.48
						c-1.13-0.63-2.27-1.1-3.43-1.46c-2.31-0.71-4.66-0.94-7.05-0.9C830.12,452.11,829.91,453.82,831.15,454.71z"/>
					<path class="st4" d="M827.14,450.76c0.94-0.08,1.89-0.14,2.81-0.17c-0.01-0.16-0.04-0.32-0.06-0.48
						c-0.96,0.17-1.91,0.34-2.85,0.51C827.08,450.67,827.11,450.72,827.14,450.76z"/>
					<path class="st4" d="M905.67,467.52c1.43,0.43,2.87,0.81,4.26,1.3c1.39,0.49,2.77,0.98,4.14,1.46
						c2.74,0.98,5.43,1.98,8.09,2.98c2.62,1.1,5.19,2.23,7.74,3.36c2.54,1.15,5.08,2.22,7.51,3.51c1.2-0.64,2.24-1.53,3.02-0.47
						c0.4,1.23,0.94,2.13,1.55,2.85c1.42,0.74,2.84,1.49,4.24,2.23c0.56,0.12,1.14,0.2,1.72,0.31c0.01,0,0.04,0,0.05,0
						c1.07-0.16,1.2-1.04,1.05-2.03c-0.31-0.81-0.55-1.64-0.69-2.51c0.09,0.55,0.54,1.54,0.69,2.51c0.38,0.97,0.9,1.84,1.64,2.56
						c1.46,0.35,2.92,0.85,4.19,1.85c-1.86-0.21-3.21-0.88-4.19-1.85c-0.93-0.21-1.84-0.36-2.74-0.53c-0.3,0.04-0.6,0.08-0.92,0.12
						c3.18,1.8,6.29,3.69,9.42,5.55c0.81,0.25,1.58,0.49,2.25,0.62c2.69,0.52,5.32,1.22,5.47,4.32c0.54,0.35,1.08,0.71,1.62,1.08
						c-0.02-0.21-0.07-0.39-0.09-0.61c0.17,0.29,0.3,0.56,0.39,0.81c1.14,0.76,2.28,1.52,3.42,2.28l1.71,1.15l1.67,1.22
						c2.04,0.02,4.28-0.15,6.26,0.14c0,0,0.1,2.21,0.15,3.3c1.36-0.79,2.75-1,4.07-0.75c-0.4-2.16-0.62-4.41-1.13-6.04
						c-0.21-3.33-6.41,2.57-5.66-3.03c-0.75,5.6,5.46-0.3,5.66,3.03c0.51,1.63,0.73,3.87,1.13,6.04c2.76,0.52,5.03,3.29,5.82,6.99
						c-4.08,0.11-5.14-3.37-5.82-6.99c-1.32-0.26-2.71-0.04-4.07,0.75c-0.05-1.09-0.15-3.3-0.15-3.3c-1.99-0.29-4.22-0.12-6.26-0.14
						c2.17,1.58,4.35,3.17,6.54,4.78c1.09,0.81,2.21,1.58,3.29,2.42c1.07,0.85,2.15,1.7,3.24,2.56
						c13.87,11.11,26.78,22.02,39.06,33.79c12.14,11.77,23.21,24.38,28.89,39.81c6.12,16.9,6.4,35.29,3.75,52.62
						c-1.4,8.56-2.58,16.74-3.99,24.78c-1.4,8.03-3.14,15.89-5.6,23.51c-2.48,7.59-5.69,14.96-10.23,21.56
						c-4.52,6.58-10.24,12.48-17.41,16.69c-5.28,3.38-10.63,9.13-16.12,14.5c-5.48,5.34-11.1,10.37-15.41,13.2
						c-0.92,1.8-1.5,3.7-1.81,5.62c-0.34,1.86-0.4,3.76-0.25,5.65c0.31,3.78,1.5,7.48,3.1,10.7c1.6,3.23,3.62,5.97,5.38,7.93
						c1.76,1.96,3.23,3.15,3.59,3.35c2.45,1.6,4.71,2.73,6.8,3.42c2.09,0.7,4.06,1.07,5.91,1.12c1.83,0.02,3.57-0.24,5.3-0.68
						c1.74-0.43,3.35-1.18,5.08-1.99c1.74-0.8,3.44-1.82,5.31-2.9c1.89-1.05,3.83-2.27,6.02-3.51c2.23-1.2,4.54-2.6,7.29-3.93
						c1.35-0.68,2.75-1.42,4.28-2.13c1.55-0.71,3.17-1.45,4.84-2.23c-2.19,1.18-3.88,1.67-5.05,1.73c-1.17,0.06-1.82-0.33-2.05-1.04
						c-0.22-0.7-0.02-1.72,0.54-2.92c0.55-1.22,1.41-2.67,2.58-4.19c2.34-3.06,5.67-6.61,9.71-9.86c2-1.64,4.17-3.22,6.53-4.61
						c2.29-1.43,4.83-2.64,7.43-3.6c7.83-2.61,13.92-7.71,18.59-14.09c4.67-6.39,7.85-14.08,10.06-22.15
						c2.23-8.08,3.54-16.52,4.77-24.79c1.24-8.29,2.4-16.41,4.5-24.25c2.11-7.87,1.53-16.49,1.71-26.12
						c0.18-1.57,0.3-3.14,0.43-4.71c0.13-1.58,0.23-3.14,0.27-4.67c0.07-1.54,0.1-3.08,0.09-4.64c0.01-1.55-0.02-3.1-0.09-4.67
						c-0.24-6.24-0.96-12.55-2.19-18.89c-2.46-12.66-6.98-25.5-13.86-37.72c-0.83-1.53-1.76-3.04-2.69-4.54
						c-0.91-1.51-1.89-2.98-2.87-4.44c-1.98-2.89-4.04-5.69-6.17-8.33c-4.25-5.33-8.74-10.14-13.26-14.69
						c-4.53-4.51-9.12-8.74-13.64-12.79c-1.12-1.01-2.25-2.01-3.38-3.03c-1.13-0.98-2.27-1.97-3.42-2.96
						c-2.28-1.99-4.55-4.01-6.82-6.08c-1.23-1.07-2.54-1.99-3.87-2.84c-1.33-0.86-2.68-1.65-4.05-2.39
						c-2.74-1.46-5.49-2.76-8.31-3.83c-2.83-1.04-5.65-1.97-8.4-2.87c-2.72-0.91-5.4-1.81-8.05-2.69c-3.52-1.76-6.63-4.34-9.56-6.93
						c-2.98-2.5-5.8-4.96-8.52-6.61c-4.26-2.63-8.64-4.36-12.88-5.82c-2.13-0.71-4.22-1.36-6.33-1.87
						c-2.13-0.48-4.24-0.89-6.33-1.26c2.15,0.79,4.18,1.49,6.17,2.16c1.96,0.73,3.86,1.43,5.8,2.15c1.94,0.72,3.9,1.47,5.97,2.3
						c1.03,0.42,2.11,0.83,3.18,1.34c1.07,0.5,2.18,1.04,3.33,1.61c3.02,1.62,1.08,2.51-2.15,2.9c-1.62,0.2-3.54,0.24-5.37,0.25
						c-1.84,0.02-3.56-0.07-4.72-0.26c-2.24,0.17-1.93-6.62-4.21-6.46c-0.91-0.5-1.88-0.85-2.88-1.11
						c-1.02-0.23-2.09-0.36-3.18-0.45c-2.18-0.18-4.47-0.2-6.79-0.49c-2.23,0.26,0.37-4.59-0.75-4.47
						c-2.97-0.84-6.33,0.01-9.22,0.58c-2.9,0.59-5.36,1-6.8-0.47c-2.32-1.95-4.42-3.72-6.47-5.44c-1.39-0.89-2.79-1.72-4.46-2.16
						c-1.15,0.02-2.34,0.05-3.53,0.07c0.2,1.9-0.25,3.93-0.74,5.96c-0.67-0.43-1.4-1.13-2.14-1.84c-0.75-0.68-1.5-1.35-2.19-1.75
						c0.68,0.41,1.44,1.08,2.19,1.75c0.74,0.71,1.47,1.41,2.14,1.84c0.48-2.04,0.94-4.07,0.74-5.96c-4.25,0.08-8.77,0.17-13.24,0.06
						c-1.11-0.03-2.23-0.06-3.35-0.08c-1.12,0-2.24,0-3.36-0.01c-2.23-0.01-4.43-0.05-6.57-0.1c-0.01,0.15-0.03,0.34-0.04,0.5
						c4.76,0.91,9.17,2.74,12.71,7.65c-1.62-1.87-0.88-3.22,1.55-2.7c0.28,1.08,0.57,2.16,0.85,3.22c-2.27,0.01-4.52,0.03-6.52-0.59
						c-1.99-0.65-3.78-1.76-5.1-4.27c0,0-2.11,0.63-3.16,0.95c-1.06-1.13-0.49-2.76-0.34-4.25c-0.93-0.19-1.88-0.32-2.84-0.43
						c0.57,1.61,2.09,3.72,3.45,5.43C904.46,466.22,905.67,467.52,905.67,467.52z"/>
					<path class="st4" d="M950.71,485.78c-0.65-0.13-1.42-0.37-2.23-0.62c2.62,1.59,5.24,3.17,7.87,4.76
						C956.11,486.82,953.4,486.29,950.71,485.78z"/>
				</g>
			</g>
		</g>
		<g>
			<g>
				<path class="st4" d="M1169.73,393.2c1.21,0.41,2.42,0.38,3.67,0.23c1.25-0.15,2.77-0.59,3.98-0.06
					c3.55,1.55-1.05,6.06-2.44,7.49c-4.42,4.55-9.4,8.5-14.57,12.15c-10.26,7.25-21.28,13.43-31.04,21.38
					c-6.16,5.01-11.49,10.84-16.76,16.76c-0.82,0.92,0.23,2,1.06,1.06c5.02-5.64,10.09-11.25,15.93-16.08
					c5.13-4.25,10.68-7.98,16.25-11.62c11.06-7.23,22.56-14.23,31.58-24.05c1.79-1.95,4.62-5.71,1.98-8.15
					c-2.34-2.17-5.86,0.16-8.55-0.75C1169.91,391.25,1168.74,392.86,1169.73,393.2L1169.73,393.2z"/>
			</g>
		</g>
		<g>
			<g>
				<path class="st4" d="M1219.64,525.54c1.06,0.68,1.23,2.05,0.83,3.17c-0.5,1.4-1.99,2.13-3.28,2.63
					c-3.13,1.21-6.45,2.03-9.66,3.01c-6.68,2.04-13.36,4.08-20.04,6.12c-13.44,4.1-26.88,8.2-40.31,12.31
					c-26.96,8.23-53.91,16.46-80.87,24.69c-15.11,4.61-30.22,9.22-45.32,13.84c-1,0.3-1.05,2.01,0.2,1.63
					c28.15-8.59,56.3-17.19,84.44-25.78c27.99-8.54,55.98-17.09,83.97-25.63c7.79-2.38,15.58-4.76,23.38-7.14
					c2.92-0.89,6.64-1.59,8.51-4.28c1.35-1.95,1.36-4.83-0.77-6.19C1219.93,523.38,1218.74,524.95,1219.64,525.54L1219.64,525.54z"
					/>
			</g>
		</g>
	</g>
	<rect x="1690.18" y="675.25" class="st5" width="367.32" height="136"/>
	<rect x="583.51" y="211.01" class="st5" width="256" height="130"/>
</g>
</svg>
